# Blender v3.2.1 OBJ File: ''
# www.blender.org
mtllib triangle.mtl
o Circle
v 0.000000 0.000000 0.000000
v 0.000000 0.000000 -1.000000
v -0.866025 0.000000 0.500000
v 0.866025 0.000000 0.500000
v 0.000000 0.168658 0.000000
v 0.000000 0.168658 -1.000000
v -0.866025 0.168658 0.500000
v 0.866025 0.168658 0.500000
vt 0.500000 0.500000
vt 0.066987 0.250000
vt 0.500000 1.000000
vt 0.933013 0.250000
vt 0.500000 0.500000
vt 0.500000 1.000000
vt 0.066987 0.250000
vt 0.933013 0.250000
vn 0.0000 -1.0000 0.0000
vn 0.0000 1.0000 0.0000
vn 0.8660 0.0000 -0.5000
vn 0.0000 0.0000 1.0000
vn -0.8660 0.0000 -0.5000
usemtl Material
s off
f 1/1/1 3/2/1 2/3/1
f 1/1/1 4/4/1 3/2/1
f 1/1/1 2/3/1 4/4/1
f 5/5/2 6/6/2 7/7/2
f 5/5/2 7/7/2 8/8/2
f 5/5/2 8/8/2 6/6/2
f 2/3/3 8/8/3 4/4/3
f 4/4/4 7/7/4 3/2/4
f 3/2/5 6/6/5 2/3/5
f 2/3/3 6/6/3 8/8/3
f 4/4/4 8/8/4 7/7/4
f 3/2/5 7/7/5 6/6/5
